<svg xmlns="http://www.w3.org/2000/svg" width="1200" height="900" viewBox="0 0 1200 900">
<rect width="100%" height="100%" fill="white"/>
<rect x="80" y="40" width="1000" height="780" fill="none" stroke="black" stroke-width="2"/>
<line x1="80.0" y1="820" x2="80.0" y2="828" stroke="black" stroke-width="1"/>
<text x="80.0" y="848" font-size="20" text-anchor="middle" fill="black">-3</text>
<line x1="246.7" y1="820" x2="246.7" y2="828" stroke="black" stroke-width="1"/>
<text x="246.7" y="848" font-size="20" text-anchor="middle" fill="black">-2</text>
<line x1="413.3" y1="820" x2="413.3" y2="828" stroke="black" stroke-width="1"/>
<text x="413.3" y="848" font-size="20" text-anchor="middle" fill="black">-1</text>
<line x1="580.0" y1="820" x2="580.0" y2="828" stroke="black" stroke-width="1"/>
<text x="580.0" y="848" font-size="20" text-anchor="middle" fill="black">0</text>
<line x1="746.7" y1="820" x2="746.7" y2="828" stroke="black" stroke-width="1"/>
<text x="746.7" y="848" font-size="20" text-anchor="middle" fill="black">1</text>
<line x1="913.3" y1="820" x2="913.3" y2="828" stroke="black" stroke-width="1"/>
<text x="913.3" y="848" font-size="20" text-anchor="middle" fill="black">2</text>
<line x1="1080.0" y1="820" x2="1080.0" y2="828" stroke="black" stroke-width="1"/>
<text x="1080.0" y="848" font-size="20" text-anchor="middle" fill="black">3</text>
<line x1="72" y1="40.0" x2="80" y2="40.0" stroke="black" stroke-width="1"/>
<text x="62" y="47.0" font-size="20" text-anchor="end" fill="black">0</text>
<line x1="72" y1="300.0" x2="80" y2="300.0" stroke="black" stroke-width="1"/>
<text x="62" y="307.0" font-size="20" text-anchor="end" fill="black">1</text>
<line x1="72" y1="560.0" x2="80" y2="560.0" stroke="black" stroke-width="1"/>
<text x="62" y="567.0" font-size="20" text-anchor="end" fill="black">2</text>
<line x1="72" y1="820.0" x2="80" y2="820.0" stroke="black" stroke-width="1"/>
<text x="62" y="827.0" font-size="20" text-anchor="end" fill="black">3</text>
<text x="580.0" y="880" font-size="24" text-anchor="middle" fill="black">x / a</text>
<text x="28" y="430.0" font-size="24" text-anchor="middle" fill="black" transform="rotate(-90 28 430.0)">z / a</text>
<line x1="413.3" y1="40.0" x2="746.7" y2="40.0" stroke="black" stroke-width="4"/>
<line x1="260.31" y1="40.00" x2="267.50" y2="46.68" stroke="black" stroke-width="3"/>
<line x1="283.12" y1="58.59" x2="267.50" y2="46.68" stroke="black" stroke-width="3"/>
<line x1="293.31" y1="64.38" x2="283.12" y2="58.59" stroke="black" stroke-width="3"/>
<line x1="892.50" y1="52.94" x2="883.31" y2="64.38" stroke="black" stroke-width="3"/>
<line x1="901.31" y1="40.00" x2="892.50" y2="52.94" stroke="black" stroke-width="3"/>
<line x1="293.31" y1="64.38" x2="298.75" y2="66.14" stroke="black" stroke-width="3"/>
<line x1="314.38" y1="70.34" x2="298.75" y2="66.14" stroke="black" stroke-width="3"/>
<line x1="330.00" y1="73.24" x2="314.38" y2="70.34" stroke="black" stroke-width="3"/>
<line x1="345.62" y1="75.19" x2="330.00" y2="73.24" stroke="black" stroke-width="3"/>
<line x1="361.25" y1="76.67" x2="345.62" y2="75.19" stroke="black" stroke-width="3"/>
<line x1="376.88" y1="78.64" x2="361.25" y2="76.67" stroke="black" stroke-width="3"/>
<line x1="392.50" y1="83.93" x2="376.88" y2="78.64" stroke="black" stroke-width="3"/>
<line x1="397.26" y1="88.75" x2="392.50" y2="83.93" stroke="black" stroke-width="3"/>
<line x1="767.50" y1="80.64" x2="757.69" y2="88.75" stroke="black" stroke-width="3"/>
<line x1="783.12" y1="79.20" x2="767.50" y2="80.64" stroke="black" stroke-width="3"/>
<line x1="798.75" y1="79.53" x2="783.12" y2="79.20" stroke="black" stroke-width="3"/>
<line x1="814.38" y1="79.41" x2="798.75" y2="79.53" stroke="black" stroke-width="3"/>
<line x1="830.00" y1="78.36" x2="814.38" y2="79.41" stroke="black" stroke-width="3"/>
<line x1="845.62" y1="76.14" x2="830.00" y2="78.36" stroke="black" stroke-width="3"/>
<line x1="861.25" y1="72.49" x2="845.62" y2="76.14" stroke="black" stroke-width="3"/>
<line x1="876.88" y1="67.07" x2="861.25" y2="72.49" stroke="black" stroke-width="3"/>
<line x1="883.31" y1="64.38" x2="876.88" y2="67.07" stroke="black" stroke-width="3"/>
<line x1="397.26" y1="88.75" x2="403.53" y2="113.12" stroke="black" stroke-width="3"/>
<line x1="757.69" y1="88.75" x2="753.63" y2="113.12" stroke="black" stroke-width="3"/>
<line x1="403.53" y1="113.12" x2="402.27" y2="137.50" stroke="black" stroke-width="3"/>
<line x1="753.63" y1="113.12" x2="756.11" y2="137.50" stroke="black" stroke-width="3"/>
<line x1="402.27" y1="137.50" x2="398.61" y2="161.88" stroke="black" stroke-width="3"/>
<line x1="756.11" y1="137.50" x2="760.40" y2="161.88" stroke="black" stroke-width="3"/>
<line x1="398.61" y1="161.88" x2="393.93" y2="186.25" stroke="black" stroke-width="3"/>
<line x1="760.40" y1="161.88" x2="765.51" y2="186.25" stroke="black" stroke-width="3"/>
<line x1="392.50" y1="192.61" x2="386.78" y2="210.62" stroke="black" stroke-width="3"/>
<line x1="393.93" y1="186.25" x2="392.50" y2="192.61" stroke="black" stroke-width="3"/>
<line x1="765.51" y1="186.25" x2="767.50" y2="194.62" stroke="black" stroke-width="3"/>
<line x1="772.87" y1="210.62" x2="767.50" y2="194.62" stroke="black" stroke-width="3"/>
<line x1="386.78" y1="210.62" x2="377.66" y2="235.00" stroke="black" stroke-width="3"/>
<line x1="772.87" y1="210.62" x2="782.19" y2="235.00" stroke="black" stroke-width="3"/>
<line x1="361.25" y1="259.31" x2="361.19" y2="259.38" stroke="black" stroke-width="3"/>
<line x1="376.88" y1="236.65" x2="361.25" y2="259.31" stroke="black" stroke-width="3"/>
<line x1="377.66" y1="235.00" x2="376.88" y2="236.65" stroke="black" stroke-width="3"/>
<line x1="782.19" y1="235.00" x2="783.12" y2="236.98" stroke="black" stroke-width="3"/>
<line x1="798.31" y1="259.38" x2="783.12" y2="236.98" stroke="black" stroke-width="3"/>
<line x1="330.00" y1="279.56" x2="319.18" y2="283.75" stroke="black" stroke-width="3"/>
<line x1="345.62" y1="271.18" x2="330.00" y2="279.56" stroke="black" stroke-width="3"/>
<line x1="361.19" y1="259.38" x2="345.62" y2="271.18" stroke="black" stroke-width="3"/>
<line x1="798.31" y1="259.38" x2="798.75" y2="259.88" stroke="black" stroke-width="3"/>
<line x1="814.38" y1="272.35" x2="798.75" y2="259.88" stroke="black" stroke-width="3"/>
<line x1="830.00" y1="281.31" x2="814.38" y2="272.35" stroke="black" stroke-width="3"/>
<line x1="835.98" y1="283.75" x2="830.00" y2="281.31" stroke="black" stroke-width="3"/>
<line x1="319.18" y1="283.75" x2="330.00" y2="289.07" stroke="black" stroke-width="3"/>
<line x1="345.62" y1="301.17" x2="330.00" y2="289.07" stroke="black" stroke-width="3"/>
<line x1="351.69" y1="308.12" x2="345.62" y2="301.17" stroke="black" stroke-width="3"/>
<line x1="814.38" y1="299.52" x2="806.87" y2="308.12" stroke="black" stroke-width="3"/>
<line x1="830.00" y1="286.92" x2="814.38" y2="299.52" stroke="black" stroke-width="3"/>
<line x1="835.98" y1="283.75" x2="830.00" y2="286.92" stroke="black" stroke-width="3"/>
<line x1="351.69" y1="308.12" x2="361.25" y2="315.20" stroke="black" stroke-width="3"/>
<line x1="376.83" y1="332.50" x2="361.25" y2="315.20" stroke="black" stroke-width="3"/>
<line x1="783.12" y1="331.78" x2="782.66" y2="332.50" stroke="black" stroke-width="3"/>
<line x1="798.75" y1="314.16" x2="783.12" y2="331.78" stroke="black" stroke-width="3"/>
<line x1="806.87" y1="308.12" x2="798.75" y2="314.16" stroke="black" stroke-width="3"/>
<line x1="376.83" y1="332.50" x2="365.47" y2="356.88" stroke="black" stroke-width="3"/>
<line x1="782.66" y1="332.50" x2="783.12" y2="333.64" stroke="black" stroke-width="3"/>
<line x1="794.10" y1="356.88" x2="783.12" y2="333.64" stroke="black" stroke-width="3"/>
<line x1="361.25" y1="366.55" x2="353.72" y2="381.25" stroke="black" stroke-width="3"/>
<line x1="365.47" y1="356.88" x2="361.25" y2="366.55" stroke="black" stroke-width="3"/>
<line x1="794.10" y1="356.88" x2="798.75" y2="367.42" stroke="black" stroke-width="3"/>
<line x1="805.91" y1="381.25" x2="798.75" y2="367.42" stroke="black" stroke-width="3"/>
<line x1="345.62" y1="398.26" x2="341.52" y2="405.62" stroke="black" stroke-width="3"/>
<line x1="353.72" y1="381.25" x2="345.62" y2="398.26" stroke="black" stroke-width="3"/>
<line x1="805.91" y1="381.25" x2="814.38" y2="398.94" stroke="black" stroke-width="3"/>
<line x1="818.13" y1="405.62" x2="814.38" y2="398.94" stroke="black" stroke-width="3"/>
<line x1="330.00" y1="427.99" x2="328.79" y2="430.00" stroke="black" stroke-width="3"/>
<line x1="341.52" y1="405.62" x2="330.00" y2="427.99" stroke="black" stroke-width="3"/>
<line x1="818.13" y1="405.62" x2="830.00" y2="428.62" stroke="black" stroke-width="3"/>
<line x1="830.83" y1="430.00" x2="830.00" y2="428.62" stroke="black" stroke-width="3"/>
<line x1="328.79" y1="430.00" x2="315.28" y2="454.38" stroke="black" stroke-width="3"/>
<line x1="830.83" y1="430.00" x2="844.36" y2="454.38" stroke="black" stroke-width="3"/>
<line x1="314.38" y1="456.15" x2="301.06" y2="478.75" stroke="black" stroke-width="3"/>
<line x1="315.28" y1="454.38" x2="314.38" y2="456.15" stroke="black" stroke-width="3"/>
<line x1="844.36" y1="454.38" x2="845.62" y2="456.86" stroke="black" stroke-width="3"/>
<line x1="858.51" y1="478.75" x2="845.62" y2="456.86" stroke="black" stroke-width="3"/>
<line x1="298.75" y1="483.03" x2="286.34" y2="503.12" stroke="black" stroke-width="3"/>
<line x1="301.06" y1="478.75" x2="298.75" y2="483.03" stroke="black" stroke-width="3"/>
<line x1="858.51" y1="478.75" x2="861.25" y2="483.85" stroke="black" stroke-width="3"/>
<line x1="873.14" y1="503.12" x2="861.25" y2="483.85" stroke="black" stroke-width="3"/>
<line x1="283.12" y1="508.81" x2="271.12" y2="527.50" stroke="black" stroke-width="3"/>
<line x1="286.34" y1="503.12" x2="283.12" y2="508.81" stroke="black" stroke-width="3"/>
<line x1="873.14" y1="503.12" x2="876.88" y2="509.75" stroke="black" stroke-width="3"/>
<line x1="888.26" y1="527.50" x2="876.88" y2="509.75" stroke="black" stroke-width="3"/>
<line x1="267.50" y1="533.66" x2="255.42" y2="551.88" stroke="black" stroke-width="3"/>
<line x1="271.12" y1="527.50" x2="267.50" y2="533.66" stroke="black" stroke-width="3"/>
<line x1="888.26" y1="527.50" x2="892.50" y2="534.73" stroke="black" stroke-width="3"/>
<line x1="903.86" y1="551.88" x2="892.50" y2="534.73" stroke="black" stroke-width="3"/>
<line x1="251.88" y1="557.71" x2="239.26" y2="576.25" stroke="black" stroke-width="3"/>
<line x1="255.42" y1="551.88" x2="251.88" y2="557.71" stroke="black" stroke-width="3"/>
<line x1="903.86" y1="551.88" x2="908.12" y2="558.91" stroke="black" stroke-width="3"/>
<line x1="919.92" y1="576.25" x2="908.12" y2="558.91" stroke="black" stroke-width="3"/>
<line x1="236.25" y1="581.08" x2="222.69" y2="600.62" stroke="black" stroke-width="3"/>
<line x1="239.26" y1="576.25" x2="236.25" y2="581.08" stroke="black" stroke-width="3"/>
<line x1="919.92" y1="576.25" x2="923.75" y2="582.40" stroke="black" stroke-width="3"/>
<line x1="936.40" y1="600.62" x2="923.75" y2="582.40" stroke="black" stroke-width="3"/>
<line x1="220.62" y1="603.86" x2="205.73" y2="625.00" stroke="black" stroke-width="3"/>
<line x1="222.69" y1="600.62" x2="220.62" y2="603.86" stroke="black" stroke-width="3"/>
<line x1="936.40" y1="600.62" x2="939.38" y2="605.29" stroke="black" stroke-width="3"/>
<line x1="953.28" y1="625.00" x2="939.38" y2="605.29" stroke="black" stroke-width="3"/>
<line x1="189.38" y1="647.97" x2="188.27" y2="649.38" stroke="black" stroke-width="3"/>
<line x1="205.00" y1="626.12" x2="189.38" y2="647.97" stroke="black" stroke-width="3"/>
<line x1="205.73" y1="625.00" x2="205.00" y2="626.12" stroke="black" stroke-width="3"/>
<line x1="953.28" y1="625.00" x2="955.00" y2="627.66" stroke="black" stroke-width="3"/>
<line x1="970.50" y1="649.38" x2="955.00" y2="627.66" stroke="black" stroke-width="3"/>
<line x1="173.75" y1="669.46" x2="170.38" y2="673.75" stroke="black" stroke-width="3"/>
<line x1="188.27" y1="649.38" x2="173.75" y2="669.46" stroke="black" stroke-width="3"/>
<line x1="970.50" y1="649.38" x2="970.62" y2="649.57" stroke="black" stroke-width="3"/>
<line x1="986.25" y1="671.14" x2="970.62" y2="649.57" stroke="black" stroke-width="3"/>
<line x1="988.31" y1="673.75" x2="986.25" y2="671.14" stroke="black" stroke-width="3"/>
<line x1="158.12" y1="690.62" x2="152.23" y2="698.12" stroke="black" stroke-width="3"/>
<line x1="170.38" y1="673.75" x2="158.12" y2="690.62" stroke="black" stroke-width="3"/>
<line x1="988.31" y1="673.75" x2="1001.88" y2="692.37" stroke="black" stroke-width="3"/>
<line x1="1006.42" y1="698.12" x2="1001.88" y2="692.37" stroke="black" stroke-width="3"/>
<line x1="142.50" y1="711.49" x2="133.88" y2="722.50" stroke="black" stroke-width="3"/>
<line x1="152.23" y1="698.12" x2="142.50" y2="711.49" stroke="black" stroke-width="3"/>
<line x1="1006.42" y1="698.12" x2="1017.50" y2="713.31" stroke="black" stroke-width="3"/>
<line x1="1024.73" y1="722.50" x2="1017.50" y2="713.31" stroke="black" stroke-width="3"/>
<line x1="126.88" y1="732.14" x2="115.38" y2="746.88" stroke="black" stroke-width="3"/>
<line x1="133.88" y1="722.50" x2="126.88" y2="732.14" stroke="black" stroke-width="3"/>
<line x1="1024.73" y1="722.50" x2="1033.12" y2="734.00" stroke="black" stroke-width="3"/>
<line x1="1043.21" y1="746.88" x2="1033.12" y2="734.00" stroke="black" stroke-width="3"/>
<line x1="111.25" y1="752.57" x2="96.78" y2="771.25" stroke="black" stroke-width="3"/>
<line x1="115.38" y1="746.88" x2="111.25" y2="752.57" stroke="black" stroke-width="3"/>
<line x1="1043.21" y1="746.88" x2="1048.75" y2="754.48" stroke="black" stroke-width="3"/>
<line x1="1061.81" y1="771.25" x2="1048.75" y2="754.48" stroke="black" stroke-width="3"/>
<line x1="95.62" y1="772.85" x2="80.00" y2="793.00" stroke="black" stroke-width="3"/>
<line x1="96.78" y1="771.25" x2="95.62" y2="772.85" stroke="black" stroke-width="3"/>
<line x1="1061.81" y1="771.25" x2="1064.38" y2="774.78" stroke="black" stroke-width="3"/>
<line x1="1080.00" y1="794.95" x2="1064.38" y2="774.78" stroke="black" stroke-width="3"/>
<line x1="395.60" y1="40.00" x2="408.12" y2="51.17" stroke="black" stroke-width="1.5"/>
<line x1="417.21" y1="64.38" x2="408.12" y2="51.17" stroke="black" stroke-width="1.5"/>
<line x1="751.51" y1="40.00" x2="736.97" y2="64.38" stroke="black" stroke-width="1.5"/>
<line x1="417.21" y1="64.38" x2="423.75" y2="79.50" stroke="black" stroke-width="1.5"/>
<line x1="426.46" y1="88.75" x2="423.75" y2="79.50" stroke="black" stroke-width="1.5"/>
<line x1="736.25" y1="66.56" x2="732.18" y2="88.75" stroke="black" stroke-width="1.5"/>
<line x1="736.97" y1="64.38" x2="736.25" y2="66.56" stroke="black" stroke-width="1.5"/>
<line x1="426.46" y1="88.75" x2="427.86" y2="113.12" stroke="black" stroke-width="1.5"/>
<line x1="732.18" y1="88.75" x2="731.94" y2="113.12" stroke="black" stroke-width="1.5"/>
<line x1="427.86" y1="113.12" x2="426.91" y2="137.50" stroke="black" stroke-width="1.5"/>
<line x1="731.94" y1="113.12" x2="733.40" y2="137.50" stroke="black" stroke-width="1.5"/>
<line x1="426.91" y1="137.50" x2="424.88" y2="161.88" stroke="black" stroke-width="1.5"/>
<line x1="733.40" y1="137.50" x2="735.70" y2="161.88" stroke="black" stroke-width="1.5"/>
<line x1="423.75" y1="173.13" x2="422.04" y2="186.25" stroke="black" stroke-width="1.5"/>
<line x1="424.88" y1="161.88" x2="423.75" y2="173.13" stroke="black" stroke-width="1.5"/>
<line x1="735.70" y1="161.88" x2="736.25" y2="167.00" stroke="black" stroke-width="1.5"/>
<line x1="738.86" y1="186.25" x2="736.25" y2="167.00" stroke="black" stroke-width="1.5"/>
<line x1="422.04" y1="186.25" x2="418.68" y2="210.62" stroke="black" stroke-width="1.5"/>
<line x1="738.86" y1="186.25" x2="742.41" y2="210.62" stroke="black" stroke-width="1.5"/>
<line x1="418.68" y1="210.62" x2="414.89" y2="235.00" stroke="black" stroke-width="1.5"/>
<line x1="742.41" y1="210.62" x2="746.44" y2="235.00" stroke="black" stroke-width="1.5"/>
<line x1="414.89" y1="235.00" x2="409.92" y2="259.38" stroke="black" stroke-width="1.5"/>
<line x1="746.44" y1="235.00" x2="751.70" y2="259.38" stroke="black" stroke-width="1.5"/>
<line x1="408.12" y1="265.59" x2="400.68" y2="283.75" stroke="black" stroke-width="1.5"/>
<line x1="409.92" y1="259.38" x2="408.12" y2="265.59" stroke="black" stroke-width="1.5"/>
<line x1="751.70" y1="259.38" x2="751.88" y2="259.99" stroke="black" stroke-width="1.5"/>
<line x1="761.45" y1="283.75" x2="751.88" y2="259.99" stroke="black" stroke-width="1.5"/>
<line x1="400.68" y1="283.75" x2="408.12" y2="303.62" stroke="black" stroke-width="1.5"/>
<line x1="409.57" y1="308.12" x2="408.12" y2="303.62" stroke="black" stroke-width="1.5"/>
<line x1="751.88" y1="305.39" x2="750.80" y2="308.12" stroke="black" stroke-width="1.5"/>
<line x1="761.45" y1="283.75" x2="751.88" y2="305.39" stroke="black" stroke-width="1.5"/>
<line x1="409.57" y1="308.12" x2="417.83" y2="332.50" stroke="black" stroke-width="1.5"/>
<line x1="750.80" y1="308.12" x2="742.90" y2="332.50" stroke="black" stroke-width="1.5"/>
<line x1="417.83" y1="332.50" x2="410.15" y2="356.88" stroke="black" stroke-width="1.5"/>
<line x1="742.90" y1="332.50" x2="750.53" y2="356.88" stroke="black" stroke-width="1.5"/>
<line x1="408.12" y1="363.73" x2="402.26" y2="381.25" stroke="black" stroke-width="1.5"/>
<line x1="410.15" y1="356.88" x2="408.12" y2="363.73" stroke="black" stroke-width="1.5"/>
<line x1="750.53" y1="356.88" x2="751.88" y2="361.46" stroke="black" stroke-width="1.5"/>
<line x1="758.48" y1="381.25" x2="751.88" y2="361.46" stroke="black" stroke-width="1.5"/>
<line x1="402.26" y1="381.25" x2="394.60" y2="405.62" stroke="black" stroke-width="1.5"/>
<line x1="758.48" y1="381.25" x2="766.14" y2="405.62" stroke="black" stroke-width="1.5"/>
<line x1="392.50" y1="412.79" x2="386.72" y2="430.00" stroke="black" stroke-width="1.5"/>
<line x1="394.60" y1="405.62" x2="392.50" y2="412.79" stroke="black" stroke-width="1.5"/>
<line x1="766.14" y1="405.62" x2="767.50" y2="410.27" stroke="black" stroke-width="1.5"/>
<line x1="774.10" y1="430.00" x2="767.50" y2="410.27" stroke="black" stroke-width="1.5"/>
<line x1="386.72" y1="430.00" x2="379.05" y2="454.38" stroke="black" stroke-width="1.5"/>
<line x1="774.10" y1="430.00" x2="781.77" y2="454.38" stroke="black" stroke-width="1.5"/>
<line x1="376.88" y1="461.79" x2="371.19" y2="478.75" stroke="black" stroke-width="1.5"/>
<line x1="379.05" y1="454.38" x2="376.88" y2="461.79" stroke="black" stroke-width="1.5"/>
<line x1="781.77" y1="454.38" x2="783.12" y2="459.02" stroke="black" stroke-width="1.5"/>
<line x1="789.70" y1="478.75" x2="783.12" y2="459.02" stroke="black" stroke-width="1.5"/>
<line x1="371.19" y1="478.75" x2="363.55" y2="503.12" stroke="black" stroke-width="1.5"/>
<line x1="789.70" y1="478.75" x2="797.33" y2="503.12" stroke="black" stroke-width="1.5"/>
<line x1="361.25" y1="510.98" x2="355.77" y2="527.50" stroke="black" stroke-width="1.5"/>
<line x1="363.55" y1="503.12" x2="361.25" y2="510.98" stroke="black" stroke-width="1.5"/>
<line x1="797.33" y1="503.12" x2="798.75" y2="508.03" stroke="black" stroke-width="1.5"/>
<line x1="805.16" y1="527.50" x2="798.75" y2="508.03" stroke="black" stroke-width="1.5"/>
<line x1="355.77" y1="527.50" x2="348.20" y2="551.88" stroke="black" stroke-width="1.5"/>
<line x1="805.16" y1="527.50" x2="812.70" y2="551.88" stroke="black" stroke-width="1.5"/>
<line x1="345.62" y1="560.77" x2="340.57" y2="576.25" stroke="black" stroke-width="1.5"/>
<line x1="348.20" y1="551.88" x2="345.62" y2="560.77" stroke="black" stroke-width="1.5"/>
<line x1="812.70" y1="551.88" x2="814.38" y2="557.69" stroke="black" stroke-width="1.5"/>
<line x1="820.39" y1="576.25" x2="814.38" y2="557.69" stroke="black" stroke-width="1.5"/>
<line x1="340.57" y1="576.25" x2="333.13" y2="600.62" stroke="black" stroke-width="1.5"/>
<line x1="820.39" y1="576.25" x2="827.79" y2="600.62" stroke="black" stroke-width="1.5"/>
<line x1="330.00" y1="611.59" x2="325.71" y2="625.00" stroke="black" stroke-width="1.5"/>
<line x1="333.13" y1="600.62" x2="330.00" y2="611.59" stroke="black" stroke-width="1.5"/>
<line x1="827.79" y1="600.62" x2="830.00" y2="608.42" stroke="black" stroke-width="1.5"/>
<line x1="835.25" y1="625.00" x2="830.00" y2="608.42" stroke="black" stroke-width="1.5"/>
<line x1="325.71" y1="625.00" x2="318.44" y2="649.38" stroke="black" stroke-width="1.5"/>
<line x1="835.25" y1="625.00" x2="842.49" y2="649.38" stroke="black" stroke-width="1.5"/>
<line x1="314.38" y1="663.90" x2="311.31" y2="673.75" stroke="black" stroke-width="1.5"/>
<line x1="318.44" y1="649.38" x2="314.38" y2="663.90" stroke="black" stroke-width="1.5"/>
<line x1="842.49" y1="649.38" x2="845.62" y2="660.67" stroke="black" stroke-width="1.5"/>
<line x1="849.66" y1="673.75" x2="845.62" y2="660.67" stroke="black" stroke-width="1.5"/>
<line x1="311.31" y1="673.75" x2="304.24" y2="698.12" stroke="black" stroke-width="1.5"/>
<line x1="849.66" y1="673.75" x2="856.69" y2="698.12" stroke="black" stroke-width="1.5"/>
<line x1="298.75" y1="718.17" x2="297.44" y2="722.50" stroke="black" stroke-width="1.5"/>
<line x1="304.24" y1="698.12" x2="298.75" y2="718.17" stroke="black" stroke-width="1.5"/>
<line x1="856.69" y1="698.12" x2="861.25" y2="714.89" stroke="black" stroke-width="1.5"/>
<line x1="863.53" y1="722.50" x2="861.25" y2="714.89" stroke="black" stroke-width="1.5"/>
<line x1="297.44" y1="722.50" x2="290.61" y2="746.88" stroke="black" stroke-width="1.5"/>
<line x1="863.53" y1="722.50" x2="870.33" y2="746.88" stroke="black" stroke-width="1.5"/>
<line x1="290.61" y1="746.88" x2="284.12" y2="771.25" stroke="black" stroke-width="1.5"/>
<line x1="870.33" y1="746.88" x2="876.79" y2="771.25" stroke="black" stroke-width="1.5"/>
<line x1="283.12" y1="775.27" x2="277.61" y2="795.62" stroke="black" stroke-width="1.5"/>
<line x1="284.12" y1="771.25" x2="283.12" y2="775.27" stroke="black" stroke-width="1.5"/>
<line x1="876.79" y1="771.25" x2="876.88" y2="771.59" stroke="black" stroke-width="1.5"/>
<line x1="883.33" y1="795.62" x2="876.88" y2="771.59" stroke="black" stroke-width="1.5"/>
<line x1="277.61" y1="795.62" x2="271.37" y2="820.00" stroke="black" stroke-width="1.5"/>
<line x1="883.33" y1="795.62" x2="889.54" y2="820.00" stroke="black" stroke-width="1.5"/>
<line x1="424.30" y1="40.00" x2="437.50" y2="64.38" stroke="black" stroke-width="1.5"/>
<line x1="713.85" y1="40.00" x2="716.15" y2="64.38" stroke="black" stroke-width="1.5"/>
<line x1="437.50" y1="64.38" x2="439.38" y2="71.50" stroke="black" stroke-width="1.5"/>
<line x1="443.20" y1="88.75" x2="439.38" y2="71.50" stroke="black" stroke-width="1.5"/>
<line x1="716.15" y1="64.38" x2="714.94" y2="88.75" stroke="black" stroke-width="1.5"/>
<line x1="443.20" y1="88.75" x2="444.53" y2="113.12" stroke="black" stroke-width="1.5"/>
<line x1="714.94" y1="88.75" x2="715.24" y2="113.12" stroke="black" stroke-width="1.5"/>
<line x1="444.53" y1="113.12" x2="444.27" y2="137.50" stroke="black" stroke-width="1.5"/>
<line x1="715.24" y1="113.12" x2="716.24" y2="137.50" stroke="black" stroke-width="1.5"/>
<line x1="444.27" y1="137.50" x2="443.35" y2="161.88" stroke="black" stroke-width="1.5"/>
<line x1="716.24" y1="137.50" x2="717.57" y2="161.88" stroke="black" stroke-width="1.5"/>
<line x1="443.35" y1="161.88" x2="442.23" y2="186.25" stroke="black" stroke-width="1.5"/>
<line x1="717.57" y1="161.88" x2="718.95" y2="186.25" stroke="black" stroke-width="1.5"/>
<line x1="442.23" y1="186.25" x2="441.20" y2="210.62" stroke="black" stroke-width="1.5"/>
<line x1="718.95" y1="186.25" x2="720.24" y2="210.62" stroke="black" stroke-width="1.5"/>
<line x1="441.20" y1="210.62" x2="440.36" y2="235.00" stroke="black" stroke-width="1.5"/>
<line x1="720.24" y1="210.62" x2="720.62" y2="219.36" stroke="black" stroke-width="1.5"/>
<line x1="721.45" y1="235.00" x2="720.62" y2="219.36" stroke="black" stroke-width="1.5"/>
<line x1="440.36" y1="235.00" x2="439.66" y2="259.38" stroke="black" stroke-width="1.5"/>
<line x1="721.45" y1="235.00" x2="722.64" y2="259.38" stroke="black" stroke-width="1.5"/>
<line x1="439.38" y1="268.55" x2="438.73" y2="283.75" stroke="black" stroke-width="1.5"/>
<line x1="439.66" y1="259.38" x2="439.38" y2="268.55" stroke="black" stroke-width="1.5"/>
<line x1="722.64" y1="259.38" x2="724.28" y2="283.75" stroke="black" stroke-width="1.5"/>
<line x1="438.73" y1="283.75" x2="439.38" y2="285.89" stroke="black" stroke-width="1.5"/>
<line x1="445.75" y1="308.12" x2="439.38" y2="285.89" stroke="black" stroke-width="1.5"/>
<line x1="720.62" y1="293.30" x2="715.08" y2="308.12" stroke="black" stroke-width="1.5"/>
<line x1="724.28" y1="283.75" x2="720.62" y2="293.30" stroke="black" stroke-width="1.5"/>
<line x1="445.75" y1="308.12" x2="448.91" y2="332.50" stroke="black" stroke-width="1.5"/>
<line x1="715.08" y1="308.12" x2="712.31" y2="332.50" stroke="black" stroke-width="1.5"/>
<line x1="448.91" y1="332.50" x2="442.84" y2="356.88" stroke="black" stroke-width="1.5"/>
<line x1="712.31" y1="332.50" x2="718.26" y2="356.88" stroke="black" stroke-width="1.5"/>
<line x1="439.38" y1="372.29" x2="437.18" y2="381.25" stroke="black" stroke-width="1.5"/>
<line x1="442.84" y1="356.88" x2="439.38" y2="372.29" stroke="black" stroke-width="1.5"/>
<line x1="718.26" y1="356.88" x2="720.62" y2="367.56" stroke="black" stroke-width="1.5"/>
<line x1="723.92" y1="381.25" x2="720.62" y2="367.56" stroke="black" stroke-width="1.5"/>
<line x1="437.18" y1="381.25" x2="431.82" y2="405.62" stroke="black" stroke-width="1.5"/>
<line x1="723.92" y1="381.25" x2="729.26" y2="405.62" stroke="black" stroke-width="1.5"/>
<line x1="431.82" y1="405.62" x2="426.82" y2="430.00" stroke="black" stroke-width="1.5"/>
<line x1="729.26" y1="405.62" x2="734.27" y2="430.00" stroke="black" stroke-width="1.5"/>
<line x1="423.75" y1="446.23" x2="422.05" y2="454.38" stroke="black" stroke-width="1.5"/>
<line x1="426.82" y1="430.00" x2="423.75" y2="446.23" stroke="black" stroke-width="1.5"/>
<line x1="734.27" y1="430.00" x2="736.25" y2="440.57" stroke="black" stroke-width="1.5"/>
<line x1="739.10" y1="454.38" x2="736.25" y2="440.57" stroke="black" stroke-width="1.5"/>
<line x1="422.05" y1="454.38" x2="417.47" y2="478.75" stroke="black" stroke-width="1.5"/>
<line x1="739.10" y1="454.38" x2="743.68" y2="478.75" stroke="black" stroke-width="1.5"/>
<line x1="417.47" y1="478.75" x2="413.21" y2="503.12" stroke="black" stroke-width="1.5"/>
<line x1="743.68" y1="478.75" x2="747.96" y2="503.12" stroke="black" stroke-width="1.5"/>
<line x1="413.21" y1="503.12" x2="409.22" y2="527.50" stroke="black" stroke-width="1.5"/>
<line x1="747.96" y1="503.12" x2="751.88" y2="527.00" stroke="black" stroke-width="1.5"/>
<line x1="751.97" y1="527.50" x2="751.88" y2="527.00" stroke="black" stroke-width="1.5"/>
<line x1="408.12" y1="534.97" x2="405.41" y2="551.88" stroke="black" stroke-width="1.5"/>
<line x1="409.22" y1="527.50" x2="408.12" y2="534.97" stroke="black" stroke-width="1.5"/>
<line x1="751.97" y1="527.50" x2="755.81" y2="551.88" stroke="black" stroke-width="1.5"/>
<line x1="405.41" y1="551.88" x2="401.88" y2="576.25" stroke="black" stroke-width="1.5"/>
<line x1="755.81" y1="551.88" x2="759.34" y2="576.25" stroke="black" stroke-width="1.5"/>
<line x1="401.88" y1="576.25" x2="398.65" y2="600.62" stroke="black" stroke-width="1.5"/>
<line x1="759.34" y1="576.25" x2="762.57" y2="600.62" stroke="black" stroke-width="1.5"/>
<line x1="398.65" y1="600.62" x2="395.71" y2="625.00" stroke="black" stroke-width="1.5"/>
<line x1="762.57" y1="600.62" x2="765.50" y2="625.00" stroke="black" stroke-width="1.5"/>
<line x1="395.71" y1="625.00" x2="393.06" y2="649.38" stroke="black" stroke-width="1.5"/>
<line x1="765.50" y1="625.00" x2="767.50" y2="643.70" stroke="black" stroke-width="1.5"/>
<line x1="768.16" y1="649.38" x2="767.50" y2="643.70" stroke="black" stroke-width="1.5"/>
<line x1="392.50" y1="655.51" x2="390.69" y2="673.75" stroke="black" stroke-width="1.5"/>
<line x1="393.06" y1="649.38" x2="392.50" y2="655.51" stroke="black" stroke-width="1.5"/>
<line x1="768.16" y1="649.38" x2="770.53" y2="673.75" stroke="black" stroke-width="1.5"/>
<line x1="390.69" y1="673.75" x2="388.63" y2="698.12" stroke="black" stroke-width="1.5"/>
<line x1="770.53" y1="673.75" x2="772.58" y2="698.12" stroke="black" stroke-width="1.5"/>
<line x1="388.63" y1="698.12" x2="386.90" y2="722.50" stroke="black" stroke-width="1.5"/>
<line x1="772.58" y1="698.12" x2="774.30" y2="722.50" stroke="black" stroke-width="1.5"/>
<line x1="386.90" y1="722.50" x2="385.51" y2="746.88" stroke="black" stroke-width="1.5"/>
<line x1="774.30" y1="722.50" x2="775.67" y2="746.88" stroke="black" stroke-width="1.5"/>
<line x1="385.51" y1="746.88" x2="384.46" y2="771.25" stroke="black" stroke-width="1.5"/>
<line x1="775.67" y1="746.88" x2="776.70" y2="771.25" stroke="black" stroke-width="1.5"/>
<line x1="384.46" y1="771.25" x2="383.77" y2="795.62" stroke="black" stroke-width="1.5"/>
<line x1="776.70" y1="771.25" x2="777.38" y2="795.62" stroke="black" stroke-width="1.5"/>
<line x1="383.77" y1="795.62" x2="383.45" y2="820.00" stroke="black" stroke-width="1.5"/>
<line x1="777.38" y1="795.62" x2="777.68" y2="820.00" stroke="black" stroke-width="1.5"/>
<line x1="486.25" y1="45.52" x2="482.08" y2="64.38" stroke="black" stroke-width="1.5"/>
<line x1="488.54" y1="40.00" x2="486.25" y2="45.52" stroke="black" stroke-width="1.5"/>
<line x1="649.38" y1="40.00" x2="658.12" y2="47.85" stroke="black" stroke-width="1.5"/>
<line x1="670.43" y1="64.38" x2="658.12" y2="47.85" stroke="black" stroke-width="1.5"/>
<line x1="482.08" y1="64.38" x2="477.13" y2="88.75" stroke="black" stroke-width="1.5"/>
<line x1="670.43" y1="64.38" x2="673.75" y2="71.18" stroke="black" stroke-width="1.5"/>
<line x1="679.36" y1="88.75" x2="673.75" y2="71.18" stroke="black" stroke-width="1.5"/>
<line x1="477.13" y1="88.75" x2="476.14" y2="113.12" stroke="black" stroke-width="1.5"/>
<line x1="679.36" y1="88.75" x2="682.46" y2="113.12" stroke="black" stroke-width="1.5"/>
<line x1="476.14" y1="113.12" x2="476.13" y2="137.50" stroke="black" stroke-width="1.5"/>
<line x1="682.46" y1="113.12" x2="683.71" y2="137.50" stroke="black" stroke-width="1.5"/>
<line x1="476.13" y1="137.50" x2="476.69" y2="161.88" stroke="black" stroke-width="1.5"/>
<line x1="683.71" y1="137.50" x2="683.91" y2="161.88" stroke="black" stroke-width="1.5"/>
<line x1="476.69" y1="161.88" x2="477.94" y2="186.25" stroke="black" stroke-width="1.5"/>
<line x1="683.91" y1="161.88" x2="683.19" y2="186.25" stroke="black" stroke-width="1.5"/>
<line x1="477.94" y1="186.25" x2="480.20" y2="210.62" stroke="black" stroke-width="1.5"/>
<line x1="683.19" y1="186.25" x2="681.34" y2="210.62" stroke="black" stroke-width="1.5"/>
<line x1="480.20" y1="210.62" x2="484.06" y2="235.00" stroke="black" stroke-width="1.5"/>
<line x1="681.34" y1="210.62" x2="677.91" y2="235.00" stroke="black" stroke-width="1.5"/>
<line x1="484.06" y1="235.00" x2="486.25" y2="243.98" stroke="black" stroke-width="1.5"/>
<line x1="490.96" y1="259.38" x2="486.25" y2="243.98" stroke="black" stroke-width="1.5"/>
<line x1="673.75" y1="252.47" x2="671.67" y2="259.38" stroke="black" stroke-width="1.5"/>
<line x1="677.91" y1="235.00" x2="673.75" y2="252.47" stroke="black" stroke-width="1.5"/>
<line x1="490.96" y1="259.38" x2="501.88" y2="280.37" stroke="black" stroke-width="1.5"/>
<line x1="504.38" y1="283.75" x2="501.88" y2="280.37" stroke="black" stroke-width="1.5"/>
<line x1="671.67" y1="259.38" x2="659.19" y2="283.75" stroke="black" stroke-width="1.5"/>
<line x1="504.38" y1="283.75" x2="515.68" y2="308.12" stroke="black" stroke-width="1.5"/>
<line x1="658.12" y1="285.94" x2="645.48" y2="308.12" stroke="black" stroke-width="1.5"/>
<line x1="659.19" y1="283.75" x2="658.12" y2="285.94" stroke="black" stroke-width="1.5"/>
<line x1="515.68" y1="308.12" x2="509.80" y2="332.50" stroke="black" stroke-width="1.5"/>
<line x1="645.48" y1="308.12" x2="651.93" y2="332.50" stroke="black" stroke-width="1.5"/>
<line x1="509.80" y1="332.50" x2="505.51" y2="356.88" stroke="black" stroke-width="1.5"/>
<line x1="651.93" y1="332.50" x2="656.19" y2="356.88" stroke="black" stroke-width="1.5"/>
<line x1="505.51" y1="356.88" x2="502.77" y2="381.25" stroke="black" stroke-width="1.5"/>
<line x1="656.19" y1="356.88" x2="658.12" y2="374.59" stroke="black" stroke-width="1.5"/>
<line x1="658.80" y1="381.25" x2="658.12" y2="374.59" stroke="black" stroke-width="1.5"/>
<line x1="501.88" y1="396.78" x2="501.39" y2="405.62" stroke="black" stroke-width="1.5"/>
<line x1="502.77" y1="381.25" x2="501.88" y2="396.78" stroke="black" stroke-width="1.5"/>
<line x1="658.80" y1="381.25" x2="660.04" y2="405.62" stroke="black" stroke-width="1.5"/>
<line x1="501.39" y1="405.62" x2="501.16" y2="430.00" stroke="black" stroke-width="1.5"/>
<line x1="660.04" y1="405.62" x2="660.25" y2="430.00" stroke="black" stroke-width="1.5"/>
<line x1="501.16" y1="430.00" x2="501.88" y2="453.14" stroke="black" stroke-width="1.5"/>
<line x1="501.92" y1="454.38" x2="501.88" y2="453.14" stroke="black" stroke-width="1.5"/>
<line x1="660.25" y1="430.00" x2="659.45" y2="454.38" stroke="black" stroke-width="1.5"/>
<line x1="501.92" y1="454.38" x2="503.94" y2="478.75" stroke="black" stroke-width="1.5"/>
<line x1="658.12" y1="472.80" x2="657.59" y2="478.75" stroke="black" stroke-width="1.5"/>
<line x1="659.45" y1="454.38" x2="658.12" y2="472.80" stroke="black" stroke-width="1.5"/>
<line x1="503.94" y1="478.75" x2="507.14" y2="503.12" stroke="black" stroke-width="1.5"/>
<line x1="657.59" y1="478.75" x2="654.31" y2="503.12" stroke="black" stroke-width="1.5"/>
<line x1="507.14" y1="503.12" x2="511.61" y2="527.50" stroke="black" stroke-width="1.5"/>
<line x1="654.31" y1="503.12" x2="649.75" y2="527.50" stroke="black" stroke-width="1.5"/>
<line x1="511.61" y1="527.50" x2="517.41" y2="551.88" stroke="black" stroke-width="1.5"/>
<line x1="649.75" y1="527.50" x2="643.84" y2="551.88" stroke="black" stroke-width="1.5"/>
<line x1="517.41" y1="551.88" x2="517.50" y2="552.21" stroke="black" stroke-width="1.5"/>
<line x1="526.30" y1="576.25" x2="517.50" y2="552.21" stroke="black" stroke-width="1.5"/>
<line x1="642.50" y1="556.65" x2="635.02" y2="576.25" stroke="black" stroke-width="1.5"/>
<line x1="643.84" y1="551.88" x2="642.50" y2="556.65" stroke="black" stroke-width="1.5"/>
<line x1="526.30" y1="576.25" x2="533.12" y2="592.13" stroke="black" stroke-width="1.5"/>
<line x1="538.56" y1="600.62" x2="533.12" y2="592.13" stroke="black" stroke-width="1.5"/>
<line x1="626.88" y1="594.57" x2="622.83" y2="600.62" stroke="black" stroke-width="1.5"/>
<line x1="635.02" y1="576.25" x2="626.88" y2="594.57" stroke="black" stroke-width="1.5"/>
<line x1="538.56" y1="600.62" x2="548.75" y2="615.35" stroke="black" stroke-width="1.5"/>
<line x1="560.65" y1="625.00" x2="548.75" y2="615.35" stroke="black" stroke-width="1.5"/>
<line x1="611.25" y1="616.73" x2="600.42" y2="625.00" stroke="black" stroke-width="1.5"/>
<line x1="622.83" y1="600.62" x2="611.25" y2="616.73" stroke="black" stroke-width="1.5"/>
<line x1="560.65" y1="625.00" x2="564.38" y2="627.96" stroke="black" stroke-width="1.5"/>
<line x1="580.00" y1="632.22" x2="564.38" y2="627.96" stroke="black" stroke-width="1.5"/>
<line x1="595.62" y1="628.60" x2="580.00" y2="632.22" stroke="black" stroke-width="1.5"/>
<line x1="600.42" y1="625.00" x2="595.62" y2="628.60" stroke="black" stroke-width="1.5"/>
<line x1="533.12" y1="87.90" x2="532.07" y2="88.75" stroke="black" stroke-width="1.5"/>
<line x1="548.75" y1="79.98" x2="533.12" y2="87.90" stroke="black" stroke-width="1.5"/>
<line x1="564.38" y1="76.09" x2="548.75" y2="79.98" stroke="black" stroke-width="1.5"/>
<line x1="580.00" y1="75.18" x2="564.38" y2="76.09" stroke="black" stroke-width="1.5"/>
<line x1="595.62" y1="77.00" x2="580.00" y2="75.18" stroke="black" stroke-width="1.5"/>
<line x1="611.25" y1="81.88" x2="595.62" y2="77.00" stroke="black" stroke-width="1.5"/>
<line x1="623.38" y1="88.75" x2="611.25" y2="81.88" stroke="black" stroke-width="1.5"/>
<line x1="532.07" y1="88.75" x2="518.32" y2="113.12" stroke="black" stroke-width="1.5"/>
<line x1="623.38" y1="88.75" x2="626.88" y2="92.44" stroke="black" stroke-width="1.5"/>
<line x1="638.96" y1="113.12" x2="626.88" y2="92.44" stroke="black" stroke-width="1.5"/>
<line x1="517.50" y1="117.93" x2="515.14" y2="137.50" stroke="black" stroke-width="1.5"/>
<line x1="518.32" y1="113.12" x2="517.50" y2="117.93" stroke="black" stroke-width="1.5"/>
<line x1="638.96" y1="113.12" x2="642.50" y2="129.26" stroke="black" stroke-width="1.5"/>
<line x1="643.83" y1="137.50" x2="642.50" y2="129.26" stroke="black" stroke-width="1.5"/>
<line x1="515.14" y1="137.50" x2="515.80" y2="161.88" stroke="black" stroke-width="1.5"/>
<line x1="643.83" y1="137.50" x2="644.08" y2="161.88" stroke="black" stroke-width="1.5"/>
<line x1="515.80" y1="161.88" x2="517.50" y2="174.59" stroke="black" stroke-width="1.5"/>
<line x1="519.48" y1="186.25" x2="517.50" y2="174.59" stroke="black" stroke-width="1.5"/>
<line x1="642.50" y1="176.62" x2="641.19" y2="186.25" stroke="black" stroke-width="1.5"/>
<line x1="644.08" y1="161.88" x2="642.50" y2="176.62" stroke="black" stroke-width="1.5"/>
<line x1="519.48" y1="186.25" x2="526.95" y2="210.62" stroke="black" stroke-width="1.5"/>
<line x1="641.19" y1="186.25" x2="634.26" y2="210.62" stroke="black" stroke-width="1.5"/>
<line x1="526.95" y1="210.62" x2="533.12" y2="223.61" stroke="black" stroke-width="1.5"/>
<line x1="541.10" y1="235.00" x2="533.12" y2="223.61" stroke="black" stroke-width="1.5"/>
<line x1="626.88" y1="226.34" x2="620.76" y2="235.00" stroke="black" stroke-width="1.5"/>
<line x1="634.26" y1="210.62" x2="626.88" y2="226.34" stroke="black" stroke-width="1.5"/>
<line x1="541.10" y1="235.00" x2="548.75" y2="242.64" stroke="black" stroke-width="1.5"/>
<line x1="564.38" y1="251.55" x2="548.75" y2="242.64" stroke="black" stroke-width="1.5"/>
<line x1="580.00" y1="254.65" x2="564.38" y2="251.55" stroke="black" stroke-width="1.5"/>
<line x1="595.62" y1="252.35" x2="580.00" y2="254.65" stroke="black" stroke-width="1.5"/>
<line x1="611.25" y1="244.19" x2="595.62" y2="252.35" stroke="black" stroke-width="1.5"/>
<line x1="620.76" y1="235.00" x2="611.25" y2="244.19" stroke="black" stroke-width="1.5"/>
<text x="1100" y="60" font-size="22" fill="black">Line levels</text>
<line x1="1100" y1="84" x2="1140" y2="84" stroke="black" stroke-width="1.5"/>
<text x="1155" y="90" font-size="20" fill="black">-0.20</text>
<line x1="1100" y1="114" x2="1140" y2="114" stroke="black" stroke-width="1.5"/>
<text x="1155" y="120" font-size="20" fill="black">-0.10</text>
<line x1="1100" y1="144" x2="1140" y2="144" stroke="black" stroke-width="1.5"/>
<text x="1155" y="150" font-size="20" fill="black">-0.05</text>
<line x1="1100" y1="174" x2="1140" y2="174" stroke="black" stroke-width="3"/>
<text x="1155" y="180" font-size="20" fill="black">+0.00</text>
<line x1="1100" y1="204" x2="1140" y2="204" stroke="black" stroke-width="1.5"/>
<text x="1155" y="210" font-size="20" fill="black">+0.05</text>
<line x1="1100" y1="234" x2="1140" y2="234" stroke="black" stroke-width="1.5"/>
<text x="1155" y="240" font-size="20" fill="black">+0.10</text>
<line x1="1100" y1="264" x2="1140" y2="264" stroke="black" stroke-width="1.5"/>
<text x="1155" y="270" font-size="20" fill="black">+0.20</text>
<line x1="1100" y1="294" x2="1140" y2="294" stroke="black" stroke-width="1.5"/>
<text x="1155" y="300" font-size="20" fill="black">+0.30</text>
<line x1="1100" y1="324" x2="1140" y2="324" stroke="black" stroke-width="1.5"/>
<text x="1155" y="330" font-size="20" fill="black">+0.40</text>
</svg>